<svg xmlns="http://www.w3.org/2000/svg" xmlns:xlink="http://www.w3.org/1999/xlink" preserveAspectRatio="none" x="0px" y="0px" width="400px" height="154px" viewBox="0 0 400 154"><defs><g id="Layer0_0_MEMBER_0_MEMBER_0_FILL"><path fill="#FF4370" stroke="none" d="M 122.8 41.45L 122.8 38.8 111.75 38.8 111.75 41.45 115.85 41.45 115.85 57.4 111.75 57.4 111.75 60.15 122.8 60.15 122.8 57.4 118.7 57.4 118.7 41.45 122.8 41.45 Z"></path></g><g id="Layer0_0_MEMBER_0_MEMBER_1_FILL"><path fill="#FF4370" stroke="none" d="M 130 43L 130 38.45 127.55 38.45 127.5 40.85Q 127.45 42.3 127.1 42.7 126.75 43.1 125.6 43.1L 123.95 43.1 123.95 45.6 127.3 45.6 127.3 53.5Q 127.3 57.35 128.5 58.75 129.75 60.15 133.15 60.15L 135.05 60.15 135.05 57.4 133.85 57.4Q 131.5 57.4 130.75 56.6 130 55.8 130 53.1L 130 45.6 135.05 45.6 135.05 43 130 43 Z"></path></g><g id="Layer0_0_MEMBER_0_MEMBER_2_FILL"><path fill="#FF4370" stroke="none" d="M 153.1 48.3Q 153.1 42.5 145.75 42.5 142.15 42.5 140 44.3 137.9 46 137.7 48.9L 140.65 48.9Q 140.75 47.05 142.05 46 143.4 44.85 145.85 44.85 150.3 44.85 150.3 47.85 150.3 48.95 149.1 49.5 148.15 49.85 145.6 50.2 142.95 50.6 141.7 50.95 140.4 51.3 139.4 51.95 137.15 53.35 137.15 56 137.15 58.15 138.6 59.35 140.05 60.6 142.75 60.6 145.5 60.6 147.55 59.2 149.45 57.95 150.4 55.85L 150.75 60.15 153.1 60.15 153.1 48.3M 150.35 52.05Q 150.35 54.35 148.5 56.2 146.45 58.25 143.65 58.25 140.35 58.25 140.35 55.65 140.35 54.2 141.55 53.4 142.7 52.65 146.25 52.05 149.45 51.55 150.35 50.75L 150.35 52.05 Z"></path></g><g id="Layer0_0_MEMBER_0_MEMBER_3_FILL"><path fill="#FF4370" stroke="none" d="M 160.15 37.2L 157.25 37.2 157.25 60.15 160.15 60.15 160.15 37.2 Z"></path></g><g id="Layer0_0_MEMBER_0_MEMBER_4_FILL"><path fill="#FF4370" stroke="none" d="M 167.45 43L 164.5 43 164.5 60.15 167.45 60.15 167.45 43M 163.95 38.75Q 163.95 39.85 164.45 40.35 164.9 40.8 166 40.8 168.05 40.8 168.05 38.75 168.05 36.65 166 36.65 163.95 36.65 163.95 38.75 Z"></path></g><g id="Layer0_0_MEMBER_0_MEMBER_5_FILL"><path fill="#FF4370" stroke="none" d="M 186.7 48.3Q 186.7 42.5 179.3 42.5 175.7 42.5 173.55 44.3 171.5 46 171.25 48.9L 174.25 48.9Q 174.35 47.05 175.65 46 177 44.85 179.45 44.85 183.85 44.85 183.85 47.85 183.85 48.95 182.65 49.5 181.75 49.85 179.2 50.2 176.55 50.6 175.3 50.95 174 51.3 172.95 51.95 170.75 53.35 170.75 56 170.75 58.15 172.15 59.35 173.65 60.6 176.35 60.6 179.05 60.6 181.15 59.2 183.05 57.95 184 55.85L 184.3 60.15 186.7 60.15 186.7 48.3M 183.9 50.75L 183.9 52.05Q 183.9 54.35 182.05 56.2 180.05 58.25 177.25 58.25 173.9 58.25 173.9 55.65 173.9 54.15 175.15 53.4 176.2 52.65 179.8 52.05 183 51.55 183.9 50.75 Z"></path></g><g id="Layer0_0_MEMBER_1_MEMBER_0_MEMBER_0_FILL"><path fill="#FF4370" stroke="none" d="M 129.7 9.3Q 129.7 6.5 127.65 4.9 125.6 3.45 121.3 3.45L 112.8 3.45 112.8 25.45 121.7 25.45Q 125.85 25.45 128 23.75 130.15 22.05 130.15 19 130.15 16.95 129.15 15.7 128.5 14.75 127.2 14.15 128.3 13.55 128.9 12.6 129.7 11.35 129.7 9.3M 125.15 9.7Q 125.15 11 124.25 11.6 123.4 12.25 121.45 12.25L 117.35 12.25 117.35 7.3 121.45 7.3Q 123.45 7.3 124.35 7.9 125.15 8.5 125.15 9.7M 125.4 18.7Q 125.4 20 124.5 20.65 123.6 21.4 121.15 21.4L 117.35 21.4 117.35 16.1 121.25 16.1Q 123.4 16.1 124.45 16.75 125.4 17.35 125.4 18.7 Z"></path></g><g id="Layer0_0_MEMBER_1_MEMBER_0_MEMBER_1_FILL"><path fill="#FF4370" stroke="none" d="M 144.8 7.9Q 143.85 7.5 142.75 7.3 141.65 7.15 140.2 7.15 136.35 7.15 134.2 9 132.05 10.9 131.8 13.95L 131.75 14.3 136.5 14.3 136.55 14Q 136.65 12.5 137.5 11.7 138.35 10.9 140.4 10.9 142.3 10.9 143 11.45 143.65 11.95 143.65 12.85 143.65 13.7 142.9 14 141.85 14.5 139.7 14.7L 135.15 15.65 133.65 16.4Q 132.5 17.15 131.85 18.25 131.2 19.45 131.2 20.95 131.2 23.15 132.75 24.55 134.25 25.9 137.2 25.9 139.95 25.9 141.8 24.7 143.1 23.9 144 22.7L 144.3 25.45 148.15 25.45 148.15 13.5Q 148.15 11.45 147.35 10.15 146.6 8.65 144.8 7.9M 142.75 17.4L 143.7 17 143.7 17.3Q 143.7 18.5 143.1 19.55 142.4 20.75 141.25 21.45 140.6 21.8 140 21.95 139.4 22.15 138.55 22.15 137.3 22.15 136.75 21.7 136.2 21.25 136.2 20.35 136.2 19.85 136.4 19.5 136.6 19.15 137.05 18.85 137.65 18.5 138.35 18.3 139.05 18.1 140.65 17.85L 142.75 17.4 Z"></path></g><g id="Layer0_0_MEMBER_1_MEMBER_0_MEMBER_2_FILL"><path fill="#FF4370" stroke="none" d="M 166.85 14.5Q 166.85 11.15 165.15 9.15 163.45 7.15 160.15 7.15 157.8 7.15 156.25 8.25 155.2 9 154.55 10.1L 154.3 7.55 150.3 7.55 150.3 25.45 154.95 25.45 154.95 16.1Q 154.95 13.8 155.9 12.5 156.85 11.25 158.85 11.25 160.8 11.25 161.45 12.35 162.2 13.5 162.2 15.45L 162.2 25.45 166.85 25.45 166.85 14.5 Z"></path></g><g id="Layer0_0_MEMBER_1_MEMBER_0_MEMBER_3_FILL"><path fill="#FF4370" stroke="none" d="M 169.25 5.25Q 169.9 5.9 171.45 5.9 172.95 5.9 173.65 5.2 174.45 4.4 174.45 2.95 174.45 1.35 173.65 0.7 172.85 0 171.45 0 170.1 0 169.3 0.7 168.5 1.35 168.5 2.95 168.5 4.6 169.25 5.25 Z"></path></g><g id="Layer0_0_MEMBER_1_MEMBER_0_MEMBER_4_FILL"><path fill="#FF4370" stroke="none" d="M 173.75 25.45L 173.75 7.55 169.1 7.55 169.1 25.45 173.75 25.45 Z"></path></g><g id="Layer0_0_MEMBER_1_MEMBER_0_MEMBER_5_FILL"><path fill="#FF4370" stroke="none" d="M 180.6 7.55L 176.05 7.55 176.05 25.4Q 176.05 26.75 175.9 27.35 175.75 27.8 175.35 27.95L 174.65 28.1 172.5 28.15 172.5 32.5 174.1 32.5Q 176.05 32.5 177.25 32.2 178.55 31.9 179.3 31.15 180.05 30.4 180.35 29.05 180.6 27.65 180.6 25.9L 180.6 7.55 Z"></path></g><g id="Layer0_0_MEMBER_1_MEMBER_0_MEMBER_6_FILL"><path fill="#FF4370" stroke="none" d="M 180.55 0.7Q 179.75 0 178.35 0 177 0 176.2 0.7 175.4 1.3 175.4 2.95 175.4 4.55 176.1 5.25 176.8 5.9 178.35 5.9 179.75 5.9 180.55 5.2 181.3 4.45 181.3 2.95 181.3 1.3 180.55 0.7 Z"></path></g><g id="Layer0_0_MEMBER_1_MEMBER_0_MEMBER_7_FILL"><path fill="#FF4370" stroke="none" d="M 198.3 10.15Q 197.55 8.7 195.75 7.9 194.85 7.55 193.7 7.3 192.6 7.15 191.15 7.15 187.3 7.15 185.15 9 182.9 10.95 182.75 13.95L 182.7 14.3 187.45 14.3 187.45 14Q 187.5 12.55 188.45 11.7 189.3 10.9 191.35 10.9 193.15 10.9 193.95 11.45 194.6 11.95 194.6 12.85 194.6 13.7 193.8 14 192.85 14.5 190.6 14.7L 186.1 15.65 184.55 16.4Q 183.5 17.1 182.8 18.25 182.15 19.35 182.15 20.95 182.15 23.15 183.7 24.55 185.2 25.9 188.15 25.9 190.9 25.9 192.7 24.7 194.1 23.85 194.9 22.7L 195.25 25.45 199.1 25.45 199.1 13.5Q 199.1 11.6 198.3 10.15M 189.3 18.3Q 190.05 18.05 191.6 17.85L 193.7 17.4 194.65 17 194.65 17.3Q 194.65 18.55 194 19.55 193.4 20.7 192.2 21.45 191.4 21.85 190.95 21.95 190.35 22.15 189.45 22.15 188.25 22.15 187.7 21.7 187.15 21.3 187.15 20.35 187.15 19.85 187.35 19.5 187.55 19.15 188 18.85 188.6 18.5 189.3 18.3 Z"></path></g><g id="Layer0_0_MEMBER_1_MEMBER_0_MEMBER_8_FILL"><path fill="#FF4370" stroke="none" d="M 217.9 7.55L 213 7.55 208.5 19.05 203.9 7.55 198.95 7.55 206.2 24.65 205.95 25.3Q 205.6 26.15 205.05 26.9 204.6 27.35 204.05 27.55L 203.3 27.7 200 27.75 200 31.85 202.3 31.85Q 204.2 31.85 205.2 31.65 206.35 31.5 207.25 30.85 208.05 30.25 208.75 29.1 209.3 28.25 210.15 26.2L 217.9 7.55 Z"></path></g><g id="Layer0_0_MEMBER_2_MEMBER_0_FILL"><path fill="#FF4370" stroke="none" d="M 94.75 3.45L 91.95 3.45 91.95 78.75 94.75 78.75 94.75 3.45 Z"></path></g><g id="Layer0_0_MEMBER_2_MEMBER_1_MEMBER_0_MEMBER_0_FILL"><path fill="#FF4370" stroke="none" d="M 55.45 39.55Q 63.4 39.55 68.2 35.2 73.5 30.45 73.5 21.55 73.5 14.1 68.2 8.8 62.9 3.5 55.45 3.5L 2.3 3.5Q 1.35 3.5 0.7 4.2 0 4.85 0 5.8L 0 39.55 55.45 39.55 Z"></path></g><g id="Layer0_0_MEMBER_2_MEMBER_1_MEMBER_0_MEMBER_1_FILL"><path fill="#FF4370" stroke="none" d="M 68.2 46.95Q 63.4 42.6 55.45 42.6L 0 42.6 0 76.4Q 0 77.35 0.7 78 1.35 78.7 2.3 78.7L 55.45 78.7Q 62.9 78.7 68.2 73.4 73.5 68.1 73.5 60.65 73.5 51.75 68.2 46.95 Z"></path></g><g id="Layer0_0_MEMBER_2_MEMBER_2_MEMBER_0_FILL"><path fill="#FF4370" stroke="none" d="M 118.75 72.4L 120.85 78.75 122.45 78.75 124.85 69.75 123.2 69.75 121.55 76.35 119.4 69.75 118.15 69.75 116 76.2 114.5 69.75 112.85 69.75 115.05 78.75 116.6 78.75 118.75 72.4 Z"></path></g><g id="Layer0_0_MEMBER_2_MEMBER_2_MEMBER_1_FILL"><path fill="#FF4370" stroke="none" d="M 128.45 71.3Q 126.75 71.3 125.75 72.35 124.75 73.35 124.75 75.1L 124.75 75.25Q 124.75 78.9 128.4 78.9 131.2 78.9 131.9 76.6L 130.1 76.6Q 129.7 77.55 128.45 77.55 126.65 77.55 126.4 75.7L 132 75.7 132 74.95Q 132 73.45 131.15 72.45 130.2 71.3 128.45 71.3M 130.35 74.4L 126.4 74.4Q 126.7 72.6 128.45 72.6 130.2 72.6 130.35 74.4 Z"></path></g><g id="Layer0_0_MEMBER_2_MEMBER_2_MEMBER_2_FILL"><path fill="#FF4370" stroke="none" d="M 140.2 71.3Q 138.65 71.3 137.75 72.05 136.9 72.8 136.8 74.05L 138.5 74.05Q 138.6 72.6 140.3 72.6 141.8 72.6 141.8 73.55 141.8 74.3 140 74.5 138.15 74.75 137.5 75.2 136.55 75.75 136.55 77 136.55 78.9 138.9 78.9 141.05 78.9 141.9 77.3L 142.05 78.75 143.4 78.75 143.4 73.85Q 143.4 71.3 140.2 71.3M 138.8 76Q 139.2 75.7 140.35 75.55 141.4 75.4 141.8 75.05L 141.8 75.45Q 141.8 76.3 141.2 76.95 140.5 77.65 139.5 77.65 138.35 77.65 138.35 76.75 138.35 76.25 138.8 76 Z"></path></g><g id="Layer0_0_MEMBER_2_MEMBER_2_MEMBER_3_FILL"><path fill="#FF4370" stroke="none" d="M 146.15 71.5L 144.8 71.5 144.8 78.75 146.4 78.75 146.4 75.4Q 146.4 74.1 146.85 73.6 147.3 73.1 148.55 73.1L 149.25 73.1 149.25 71.4 148.75 71.4Q 146.8 71.4 146.35 73.2L 146.15 71.5 Z"></path></g><g id="Layer0_0_MEMBER_2_MEMBER_2_MEMBER_4_FILL"><path fill="#FF4370" stroke="none" d="M 153.35 71.3Q 151.65 71.3 150.65 72.35 149.65 73.35 149.65 75.1L 149.65 75.25Q 149.65 78.9 153.3 78.9 156.1 78.9 156.8 76.6L 155 76.6Q 154.6 77.55 153.35 77.55 151.55 77.55 151.3 75.7L 156.9 75.7 156.9 74.95Q 156.9 73.45 156.05 72.45 155.1 71.3 153.35 71.3M 155.25 74.4L 151.3 74.4Q 151.6 72.6 153.35 72.6 155.1 72.6 155.25 74.4 Z"></path></g><g id="Layer0_0_MEMBER_2_MEMBER_2_MEMBER_5_FILL"><path fill="#FF4370" stroke="none" d="M 167.45 74.15Q 168.7 73.6 168.7 72.05 168.7 69.75 165.3 69.75L 161.85 69.75 161.85 78.75 165.45 78.75Q 168.9 78.75 168.9 76.15 168.9 74.65 167.45 74.15M 163.5 71.1L 165.35 71.1Q 167.1 71.1 167.1 72.25 167.1 73.45 165.4 73.45L 163.5 73.45 163.5 71.1M 163.5 77.3L 163.5 74.8 165.3 74.8Q 167.2 74.8 167.2 76.05 167.2 77.3 165.25 77.3L 163.5 77.3 Z"></path></g><g id="Layer0_0_MEMBER_2_MEMBER_2_MEMBER_6_FILL"><path fill="#FF4370" stroke="none" d="M 176.6 73.85Q 176.6 71.3 173.4 71.3 171.85 71.3 170.95 72.05 170.1 72.8 170 74.05L 171.7 74.05Q 171.8 72.6 173.5 72.6 175 72.6 175 73.55 175 74.3 173.2 74.5 171.35 74.75 170.7 75.2 169.75 75.75 169.75 77 169.75 78.9 172.1 78.9 174.25 78.9 175.1 77.3L 175.25 78.75 176.6 78.75 176.6 73.85M 175 75.45Q 175 76.3 174.4 76.95 173.7 77.65 172.7 77.65 171.55 77.65 171.55 76.75 171.55 76.3 172 76 172.4 75.7 173.55 75.55 174.6 75.4 175 75.05L 175 75.45 Z"></path></g><g id="Layer0_0_MEMBER_2_MEMBER_2_MEMBER_7_FILL"><path fill="#FF4370" stroke="none" d="M 179.4 71.5L 178 71.5 178 78.75 179.65 78.75 179.65 74.95Q 179.65 72.75 181.45 72.75 183.05 72.75 183.05 74.65L 183.05 78.75 184.7 78.75 184.7 74.25Q 184.7 72.9 184 72.1 183.3 71.3 182 71.3 180.2 71.3 179.55 72.95L 179.4 71.5 Z"></path></g><g id="Layer0_0_MEMBER_2_MEMBER_2_MEMBER_8_FILL"><path fill="#FF4370" stroke="none" d="M 186.05 78.75L 187.75 78.75 187.75 71.5 186.05 71.5 186.05 78.75M 185.8 69.6Q 185.8 70.7 186.9 70.7 188 70.7 188 69.6 188 68.5 186.9 68.5 185.8 68.5 185.8 69.6 Z"></path></g><g id="Layer0_0_MEMBER_2_MEMBER_2_MEMBER_9_FILL"><path fill="#FF4370" stroke="none" d="M 190.05 68.5Q 189 68.5 189 69.6 189 70.7 190.05 70.7 191.15 70.7 191.15 69.6 191.15 68.5 190.05 68.5M 190.85 71.5L 189.25 71.5 189.25 78.85Q 189.25 79.75 189.05 79.95 188.85 80.15 188.1 80.15L 187.75 80.15 187.75 81.7 188.25 81.7Q 189.85 81.7 190.35 81.2 190.85 80.65 190.85 79.05L 190.85 71.5 Z"></path></g><g id="Layer0_0_MEMBER_2_MEMBER_2_MEMBER_10_FILL"><path fill="#FF4370" stroke="none" d="M 198.6 73.85Q 198.6 71.3 195.4 71.3 193.85 71.3 192.95 72.05 192.1 72.8 192 74.05L 193.7 74.05Q 193.8 72.6 195.45 72.6 197 72.6 197 73.55 197 74.3 195.2 74.5 193.35 74.75 192.7 75.2 191.75 75.75 191.75 77 191.75 78.9 194.1 78.9 196.25 78.9 197.1 77.3L 197.25 78.75 198.6 78.75 198.6 73.85M 197 75.45Q 197 76.3 196.4 76.95 195.7 77.65 194.7 77.65 193.55 77.65 193.55 76.75 193.55 76.25 193.95 76 194.4 75.7 195.55 75.55 196.6 75.4 197 75.05L 197 75.45 Z"></path></g><g id="Layer0_0_MEMBER_2_MEMBER_2_MEMBER_11_FILL"><path fill="#FF4370" stroke="none" d="M 200.75 71.5L 199 71.5 202 78.55 201.85 78.9Q 201.55 79.6 201.25 79.8 200.9 80 200.2 80L 199.35 80 199.35 81.45 200.2 81.45Q 201.6 81.45 202.15 81.05 202.7 80.65 203.35 79.15L 206.55 71.5 204.8 71.5 202.8 76.7 202.75 76.4 200.75 71.5 Z"></path></g></defs><g transform="matrix( 1.5323333740234375, 0, 0, 1.5323333740234375, 33,13) "><use xlink:href="#Layer0_0_MEMBER_0_MEMBER_0_FILL"></use></g><g transform="matrix( 1.5323333740234375, 0, 0, 1.5323333740234375, 33,13) "><use xlink:href="#Layer0_0_MEMBER_0_MEMBER_1_FILL"></use></g><g transform="matrix( 1.5323333740234375, 0, 0, 1.5323333740234375, 33,13) "><use xlink:href="#Layer0_0_MEMBER_0_MEMBER_2_FILL"></use></g><g transform="matrix( 1.5323333740234375, 0, 0, 1.5323333740234375, 33,13) "><use xlink:href="#Layer0_0_MEMBER_0_MEMBER_3_FILL"></use></g><g transform="matrix( 1.5323333740234375, 0, 0, 1.5323333740234375, 33,13) "><use xlink:href="#Layer0_0_MEMBER_0_MEMBER_4_FILL"></use></g><g transform="matrix( 1.5323333740234375, 0, 0, 1.5323333740234375, 33,13) "><use xlink:href="#Layer0_0_MEMBER_0_MEMBER_5_FILL"></use></g><g transform="matrix( 1.5323333740234375, 0, 0, 1.5323333740234375, 33,13) "><use xlink:href="#Layer0_0_MEMBER_1_MEMBER_0_MEMBER_0_FILL"></use></g><g transform="matrix( 1.5323333740234375, 0, 0, 1.5323333740234375, 33,13) "><use xlink:href="#Layer0_0_MEMBER_1_MEMBER_0_MEMBER_1_FILL"></use></g><g transform="matrix( 1.5323333740234375, 0, 0, 1.5323333740234375, 33,13) "><use xlink:href="#Layer0_0_MEMBER_1_MEMBER_0_MEMBER_2_FILL"></use></g><g transform="matrix( 1.5323333740234375, 0, 0, 1.5323333740234375, 33,13) "><use xlink:href="#Layer0_0_MEMBER_1_MEMBER_0_MEMBER_3_FILL"></use></g><g transform="matrix( 1.5323333740234375, 0, 0, 1.5323333740234375, 33,13) "><use xlink:href="#Layer0_0_MEMBER_1_MEMBER_0_MEMBER_4_FILL"></use></g><g transform="matrix( 1.5323333740234375, 0, 0, 1.5323333740234375, 33,13) "><use xlink:href="#Layer0_0_MEMBER_1_MEMBER_0_MEMBER_5_FILL"></use></g><g transform="matrix( 1.5323333740234375, 0, 0, 1.5323333740234375, 33,13) "><use xlink:href="#Layer0_0_MEMBER_1_MEMBER_0_MEMBER_6_FILL"></use></g><g transform="matrix( 1.5323333740234375, 0, 0, 1.5323333740234375, 33,13) "><use xlink:href="#Layer0_0_MEMBER_1_MEMBER_0_MEMBER_7_FILL"></use></g><g transform="matrix( 1.5323333740234375, 0, 0, 1.5323333740234375, 33,13) "><use xlink:href="#Layer0_0_MEMBER_1_MEMBER_0_MEMBER_8_FILL"></use></g><g transform="matrix( 1.5323333740234375, 0, 0, 1.5323333740234375, 33,13) "><use xlink:href="#Layer0_0_MEMBER_2_MEMBER_0_FILL"></use></g><g transform="matrix( 1.5323333740234375, 0, 0, 1.5323333740234375, 33,13) "><use xlink:href="#Layer0_0_MEMBER_2_MEMBER_1_MEMBER_0_MEMBER_0_FILL"></use></g><g transform="matrix( 1.5323333740234375, 0, 0, 1.5323333740234375, 33,13) "><use xlink:href="#Layer0_0_MEMBER_2_MEMBER_1_MEMBER_0_MEMBER_1_FILL"></use></g><g transform="matrix( 1.5323333740234375, 0, 0, 1.5323333740234375, 33,13) "><use xlink:href="#Layer0_0_MEMBER_2_MEMBER_2_MEMBER_0_FILL"></use></g><g transform="matrix( 1.5323333740234375, 0, 0, 1.5323333740234375, 33,13) "><use xlink:href="#Layer0_0_MEMBER_2_MEMBER_2_MEMBER_1_FILL"></use></g><g transform="matrix( 1.5323333740234375, 0, 0, 1.5323333740234375, 33,13) "><use xlink:href="#Layer0_0_MEMBER_2_MEMBER_2_MEMBER_2_FILL"></use></g><g transform="matrix( 1.5323333740234375, 0, 0, 1.5323333740234375, 33,13) "><use xlink:href="#Layer0_0_MEMBER_2_MEMBER_2_MEMBER_3_FILL"></use></g><g transform="matrix( 1.5323333740234375, 0, 0, 1.5323333740234375, 33,13) "><use xlink:href="#Layer0_0_MEMBER_2_MEMBER_2_MEMBER_4_FILL"></use></g><g transform="matrix( 1.5323333740234375, 0, 0, 1.5323333740234375, 33,13) "><use xlink:href="#Layer0_0_MEMBER_2_MEMBER_2_MEMBER_5_FILL"></use></g><g transform="matrix( 1.5323333740234375, 0, 0, 1.5323333740234375, 33,13) "><use xlink:href="#Layer0_0_MEMBER_2_MEMBER_2_MEMBER_6_FILL"></use></g><g transform="matrix( 1.5323333740234375, 0, 0, 1.5323333740234375, 33,13) "><use xlink:href="#Layer0_0_MEMBER_2_MEMBER_2_MEMBER_7_FILL"></use></g><g transform="matrix( 1.5323333740234375, 0, 0, 1.5323333740234375, 33,13) "><use xlink:href="#Layer0_0_MEMBER_2_MEMBER_2_MEMBER_8_FILL"></use></g><g transform="matrix( 1.5323333740234375, 0, 0, 1.5323333740234375, 33,13) "><use xlink:href="#Layer0_0_MEMBER_2_MEMBER_2_MEMBER_9_FILL"></use></g><g transform="matrix( 1.5323333740234375, 0, 0, 1.5323333740234375, 33,13) "><use xlink:href="#Layer0_0_MEMBER_2_MEMBER_2_MEMBER_10_FILL"></use></g><g transform="matrix( 1.5323333740234375, 0, 0, 1.5323333740234375, 33,13) "><use xlink:href="#Layer0_0_MEMBER_2_MEMBER_2_MEMBER_11_FILL"></use></g></svg>