<?xml version="1.0" encoding="UTF-8"?>
<svg xmlns="http://www.w3.org/2000/svg" version="1.1" viewBox="0 0 627.96 431.02" width="627" height="431">
  <!-- Generator: Adobe Illustrator 29.8.2, SVG Export Plug-In . SVG Version: 2.1.1 Build 3)  -->
  <defs>
    <style>
      .st0, .st1, .st2, .st3, .st4 {
        font-family: VerminVibes2Soft, 'Vermin Vibes 2 Soft';
      }

      .st0, .st1, .st3 {
        font-size: 85px;
        letter-spacing: .04em;
      }

      .st0, .st5 {
        fill: #3e5fa9;
      }

      .st1, .st2 {
        fill: #1d1d1b;
      }

      .st6 {
        stroke-linecap: round;
        stroke-linejoin: round;
      }

      .st6, .st7, .st8, .st9 {
        stroke: #010101;
      }

      .st6, .st8, .st9 {
        stroke-width: 4px;
      }

      .st6, .st9 {
        fill: none;
      }

      .st7, .st8, .st9 {
        stroke-miterlimit: 10;
      }

      .st7, .st10 {
        fill: #324a82;
      }

      .st8, .st11 {
        fill: #F5F5F5;
      }

      .st2, .st4 {
        font-size: 23px;
        letter-spacing: .04em;
      }

      .st12 {
        fill: #e10e1a;
      }

      .st3, .st4 {
        fill: #1d1d1b;
      }
    </style>
  </defs>
  <g id="V1">
    <rect class="st11" x="-629.99" width="628.97" height="431.02"/>
    <g>
      <g>
        <path class="st5" d="M-326.21,113.27c15.24,26.42,15.24,58.95,0,85.36-15.26,26.4-43.44,42.68-73.93,42.68l-3.14.17h-118.07v-.17c30.5,0,58.67-16.27,73.91-42.68,7.61-13.18,11.43-27.89,11.44-42.59.01-14.76-3.8-29.53-11.43-42.76h.03c-21.77-37.72-61.11-61.64-104.23-63.87h112.92l.16-.16c46.27-.54,89.23,23.95,112.37,64.01h-.03Z"/>
        <path class="st5" d="M-521.35,241.48h118.07v130.53h-89.62v-.06s.01-.07.03-.11c2.16-9.8,2.15-19.96-.03-29.77-9.3,5.12-20.55,5.1-29.84-.03h-.06v-100.78c.48.03.96.04,1.44.04v.17Z"/>
        <path class="st10" d="M-521.35,156.04h85.36c-.01,14.71-3.83,29.41-11.44,42.59-15.24,26.4-43.41,42.68-73.91,42.68,23.55,0,42.64-19.08,42.64-42.63s-19.09-42.64-42.64-42.64"/>
        <path class="st12" d="M-521.35,156.04c23.55,0,42.64,19.09,42.64,42.64s-19.09,42.63-42.64,42.63c-.48,0-.96-.01-1.44-.04-22.89-.75-41.19-19.52-41.19-42.59s19.04-42.59,42.55-42.64h.08Z"/>
        <path class="st6" d="M-521.43,156.04c-23.51.04-42.55,19.11-42.55,42.64s18.31,41.84,41.19,42.59c.48.03.96.04,1.44.04,23.55,0,42.64-19.08,42.64-42.63s-19.09-42.64-42.64-42.64"/>
        <polyline class="st9" points="-559.74 49.4 -551.62 49.4 -438.7 49.4"/>
        <polyline class="st6" points="-521.43 156.04 -521.35 156.04 -435.99 156.04"/>
        <path class="st9" d="M-400.14,241.3c30.49,0,58.67-16.27,73.93-42.68,15.24-26.4,15.24-58.94,0-85.36"/>
        <path class="st9" d="M-326.18,113.26c-23.14-40.06-66.43-64.39-112.7-63.85"/>
        <polyline class="st6" points="-521.43 241.48 -521.35 241.48 -403.27 241.48 -400.22 241.48"/>
        <line class="st6" x1="-522.79" y1="341.92" x2="-522.79" y2="241.48"/>
        <polyline class="st6" points="-492.95 372.01 -492.89 372.01 -403.27 372.01 -403.27 241.48"/>
        <path class="st9" d="M-521.35,241.3c30.5,0,58.67-16.27,73.91-42.68,7.61-13.18,11.43-27.89,11.44-42.59.01-14.76-3.8-29.53-11.43-42.76"/>
        <path class="st9" d="M-447.39,113.26c-21.77-37.71-61.11-61.62-104.23-63.85-2.7-.13-5.41-.18-8.14-.16"/>
        <rect class="st11" x="-499.22" y="258.88" width="72.42" height="39.56"/>
        <rect class="st8" x="-499.22" y="258.88" width="72.42" height="39.56"/>
        <rect class="st11" x="-499.22" y="313.68" width="72.42" height="39.56"/>
        <rect class="st9" x="-499.22" y="313.68" width="72.42" height="39.56"/>
        <g>
          <path class="st7" d="M-493.66,342.14c2.18,9.81,2.19,19.96.03,29.77-7.94,0-15.54-3.15-21.16-8.76-5.58-5.58-8.73-13.14-8.76-21.04h.06c9.28,5.13,20.54,5.14,29.84.03"/>
          <path class="st9" d="M-493.66,342.14c2.18,9.81,2.19,19.96.03,29.77-7.94,0-15.54-3.15-21.16-8.76-5.58-5.58-8.73-13.14-8.76-21.04h.06c9.28,5.13,20.54,5.14,29.84.03Z"/>
        </g>
      </g>
      <text class="st3" transform="translate(-389.62 369.7)"><tspan x="0" y="0">PAPIRO</tspan></text>
      <text class="st4" transform="translate(-520.79 401.31)"><tspan x="0" y="0">PRODUZIONI VIDEO E RIPRESE AEREE</tspan></text>
    </g>
  </g>
  <g id="V2">
    <g>
      <path class="st5" d="M280.45,116.31c15.24,26.42,15.24,58.95,0,85.36-15.26,26.4-43.44,42.68-73.93,42.68l-3.14.17h-118.07v-.17c30.5,0,58.67-16.27,73.91-42.68,7.61-13.18,11.43-27.89,11.44-42.59.01-14.76-3.8-29.53-11.43-42.76h.03c-21.77-37.72-61.11-61.64-104.23-63.87h112.92l.16-.16c46.27-.54,89.23,23.95,112.37,64.01h-.03Z"/>
      <path class="st5" d="M85.31,244.51h118.07v130.53h-89.62v-.06s.01-.07.03-.11c2.16-9.8,2.15-19.96-.03-29.77-9.3,5.12-20.55,5.1-29.84-.03h-.06v-100.78c.48.03.96.04,1.44.04v.17Z"/>
      <path class="st10" d="M85.31,159.07h85.36c-.01,14.71-3.83,29.41-11.44,42.59-15.24,26.4-43.41,42.68-73.91,42.68,23.55,0,42.64-19.08,42.64-42.63s-19.09-42.64-42.64-42.64"/>
      <path class="st12" d="M85.31,159.07c23.55,0,42.64,19.09,42.64,42.64s-19.09,42.63-42.64,42.63c-.48,0-.96-.01-1.44-.04-22.89-.75-41.19-19.52-41.19-42.59s19.04-42.59,42.55-42.64h.08Z"/>
      <path class="st6" d="M85.22,159.07c-23.51.04-42.55,19.11-42.55,42.64s18.31,41.84,41.19,42.59c.48.03.96.04,1.44.04,23.55,0,42.64-19.08,42.64-42.63s-19.09-42.64-42.64-42.64"/>
      <polyline class="st9" points="46.91 52.44 55.03 52.44 167.95 52.44"/>
      <polyline class="st6" points="85.22 159.07 85.31 159.07 170.66 159.07"/>
      <path class="st9" d="M206.52,244.34c30.49,0,58.67-16.27,73.93-42.68,15.24-26.4,15.24-58.94,0-85.36"/>
      <path class="st9" d="M280.47,116.29c-23.14-40.06-66.43-64.39-112.7-63.85"/>
      <polyline class="st6" points="85.22 244.51 85.31 244.51 203.38 244.51 206.43 244.51"/>
      <line class="st6" x1="83.87" y1="344.96" x2="83.87" y2="244.51"/>
      <polyline class="st6" points="113.7 375.05 113.76 375.05 203.38 375.05 203.38 244.51"/>
      <path class="st9" d="M85.31,244.34c30.5,0,58.67-16.27,73.91-42.68,7.61-13.18,11.43-27.89,11.44-42.59.01-14.76-3.8-29.53-11.43-42.76"/>
      <path class="st9" d="M159.26,116.29c-21.77-37.71-61.11-61.62-104.23-63.85-2.7-.13-5.41-.18-8.14-.16"/>
      <rect class="st11" x="107.43" y="261.92" width="72.42" height="39.56"/>
      <rect class="st8" x="107.43" y="261.92" width="72.42" height="39.56"/>
      <rect class="st11" x="107.43" y="316.72" width="72.42" height="39.56"/>
      <rect class="st9" x="107.43" y="316.72" width="72.42" height="39.56"/>
      <g>
        <path class="st7" d="M113,345.17c2.18,9.81,2.19,19.96.03,29.77-7.94,0-15.54-3.15-21.16-8.76-5.58-5.58-8.73-13.14-8.76-21.04h.06c9.28,5.13,20.54,5.14,29.84.03"/>
        <path class="st9" d="M113,345.17c2.18,9.81,2.19,19.96.03,29.77-7.94,0-15.54-3.15-21.16-8.76-5.58-5.58-8.73-13.14-8.76-21.04h.06c9.28,5.13,20.54,5.14,29.84.03Z"/>
      </g>
      <text class="st0" transform="translate(217.04 372.73)"><tspan x="0" y="0">PAPIRO</tspan></text>
      <text class="st4" transform="translate(85.87 404.35)"><tspan x="0" y="0">PRODUZIONI VIDEO E RIPRESE AEREE</tspan></text>
      <text/>
    </g>
  </g>
  <g id="V3">
    <g>
      <g>
        <path class="st5" d="M-325.96,528.41c15.24,26.42,15.24,58.95,0,85.36-15.26,26.4-43.44,42.68-73.93,42.68l-3.14.17h-118.07v-.17c30.5,0,58.67-16.27,73.91-42.68,7.61-13.18,11.43-27.89,11.44-42.59.01-14.76-3.8-29.53-11.43-42.76h.03c-21.77-37.72-61.11-61.64-104.23-63.87h112.92l.16-.16c46.27-.54,89.23,23.95,112.37,64.01h-.03Z"/>
        <path class="st5" d="M-521.09,656.62h118.07v130.53h-89.62v-.06s.01-.07.03-.11c2.16-9.8,2.15-19.96-.03-29.77-9.3,5.12-20.55,5.1-29.84-.03h-.06v-100.78c.48.03.96.04,1.44.04v.17Z"/>
        <path class="st10" d="M-521.09,571.18h85.36c-.01,14.71-3.83,29.41-11.44,42.59-15.24,26.4-43.41,42.68-73.91,42.68,23.55,0,42.64-19.08,42.64-42.63s-19.09-42.64-42.64-42.64"/>
        <path class="st12" d="M-521.09,571.18c23.55,0,42.64,19.09,42.64,42.64s-19.09,42.63-42.64,42.63c-.48,0-.96-.01-1.44-.04-22.89-.75-41.19-19.52-41.19-42.59s19.04-42.59,42.55-42.64h.08Z"/>
        <path class="st6" d="M-521.18,571.18c-23.51.04-42.55,19.11-42.55,42.64s18.31,41.84,41.19,42.59c.48.03.96.04,1.44.04,23.55,0,42.64-19.08,42.64-42.63s-19.09-42.64-42.64-42.64"/>
        <polyline class="st9" points="-559.49 464.55 -551.37 464.55 -438.45 464.55"/>
        <polyline class="st6" points="-521.18 571.18 -521.09 571.18 -435.74 571.18"/>
        <path class="st9" d="M-399.88,656.45c30.49,0,58.67-16.27,73.93-42.68,15.24-26.4,15.24-58.94,0-85.36"/>
        <path class="st9" d="M-325.93,528.4c-23.14-40.06-66.43-64.39-112.7-63.85"/>
        <polyline class="st6" points="-521.18 656.62 -521.09 656.62 -403.02 656.62 -399.97 656.62"/>
        <line class="st6" x1="-522.53" y1="757.06" x2="-522.53" y2="656.62"/>
        <polyline class="st6" points="-492.7 787.15 -492.64 787.15 -403.02 787.15 -403.02 656.62"/>
        <path class="st9" d="M-521.09,656.45c30.5,0,58.67-16.27,73.91-42.68,7.61-13.18,11.43-27.89,11.44-42.59.01-14.76-3.8-29.53-11.43-42.76"/>
        <path class="st9" d="M-447.14,528.4c-21.77-37.71-61.11-61.62-104.23-63.85-2.7-.13-5.41-.18-8.14-.16"/>
        <rect class="st11" x="-498.97" y="674.02" width="72.42" height="39.56"/>
        <rect class="st8" x="-498.97" y="674.02" width="72.42" height="39.56"/>
        <rect class="st11" x="-498.97" y="728.83" width="72.42" height="39.56"/>
        <rect class="st9" x="-498.97" y="728.83" width="72.42" height="39.56"/>
        <g>
          <path class="st7" d="M-493.41,757.28c2.18,9.81,2.19,19.96.03,29.77-7.94,0-15.54-3.15-21.16-8.76-5.58-5.58-8.73-13.14-8.76-21.04h.06c9.28,5.13,20.54,5.14,29.84.03"/>
          <path class="st9" d="M-493.41,757.28c2.18,9.81,2.19,19.96.03,29.77-7.94,0-15.54-3.15-21.16-8.76-5.58-5.58-8.73-13.14-8.76-21.04h.06c9.28,5.13,20.54,5.14,29.84.03Z"/>
        </g>
      </g>
      <text class="st1" transform="translate(-389.36 784.84)"><tspan x="0" y="0">PAPIRO</tspan></text>
      <text class="st2" transform="translate(-520.53 816.46)"><tspan x="0" y="0">PRODUZIONI VIDEO E RIPRESE AEREE</tspan></text>
    </g>
  </g>
  <g id="V4">
    <g>
      <g>
        <path class="st5" d="M280.7,531.45c15.24,26.42,15.24,58.95,0,85.36-15.26,26.4-43.44,42.68-73.93,42.68l-3.14.17h-118.07v-.17c30.5,0,58.67-16.27,73.91-42.68,7.61-13.18,11.43-27.89,11.44-42.59.01-14.76-3.8-29.53-11.43-42.76h.03c-21.77-37.72-61.11-61.64-104.23-63.87h112.92l.16-.16c46.27-.54,89.23,23.95,112.37,64.01h-.03Z"/>
        <path class="st5" d="M85.56,659.65h118.07v130.53h-89.62v-.06s.01-.07.03-.11c2.16-9.8,2.15-19.96-.03-29.77-9.3,5.12-20.55,5.1-29.84-.03h-.06v-100.78c.48.03.96.04,1.44.04v.17Z"/>
        <path class="st10" d="M85.56,574.21h85.36c-.01,14.71-3.83,29.41-11.44,42.59-15.24,26.4-43.41,42.68-73.91,42.68,23.55,0,42.64-19.08,42.64-42.63s-19.09-42.64-42.64-42.64"/>
        <path class="st12" d="M85.56,574.21c23.55,0,42.64,19.09,42.64,42.64s-19.09,42.63-42.64,42.63c-.48,0-.96-.01-1.44-.04-22.89-.75-41.19-19.52-41.19-42.59s19.04-42.59,42.55-42.64h.08Z"/>
        <path class="st6" d="M85.48,574.21c-23.51.04-42.55,19.11-42.55,42.64s18.31,41.84,41.19,42.59c.48.03.96.04,1.44.04,23.55,0,42.64-19.08,42.64-42.63s-19.09-42.64-42.64-42.64"/>
        <polyline class="st9" points="47.16 467.58 55.29 467.58 168.2 467.58"/>
        <polyline class="st6" points="85.48 574.21 85.56 574.21 170.92 574.21"/>
        <path class="st9" d="M206.77,659.48c30.49,0,58.67-16.27,73.93-42.68,15.24-26.4,15.24-58.94,0-85.36"/>
        <path class="st9" d="M280.73,531.44c-23.14-40.06-66.43-64.39-112.7-63.85"/>
        <polyline class="st6" points="85.48 659.65 85.56 659.65 203.63 659.65 206.69 659.65"/>
        <line class="st6" x1="84.12" y1="760.1" x2="84.12" y2="659.65"/>
        <polyline class="st6" points="113.95 790.19 114.01 790.19 203.63 790.19 203.63 659.66"/>
        <path class="st9" d="M85.56,659.48c30.5,0,58.67-16.27,73.91-42.68,7.61-13.18,11.43-27.89,11.44-42.59.01-14.76-3.8-29.53-11.43-42.76"/>
        <path class="st9" d="M159.51,531.44c-21.77-37.71-61.11-61.62-104.23-63.85-2.7-.13-5.41-.18-8.14-.16"/>
        <rect class="st11" x="107.68" y="677.06" width="72.42" height="39.56"/>
        <rect class="st8" x="107.68" y="677.06" width="72.42" height="39.56"/>
        <rect class="st11" x="107.68" y="731.86" width="72.42" height="39.56"/>
        <rect class="st9" x="107.68" y="731.86" width="72.42" height="39.56"/>
        <g>
          <path class="st7" d="M113.25,760.32c2.18,9.81,2.19,19.96.03,29.77-7.94,0-15.54-3.15-21.16-8.76-5.58-5.58-8.73-13.14-8.76-21.04h.06c9.28,5.13,20.54,5.14,29.84.03"/>
          <path class="st9" d="M113.25,760.32c2.18,9.81,2.19,19.96.03,29.77-7.94,0-15.54-3.15-21.16-8.76-5.58-5.58-8.73-13.14-8.76-21.04h.06c9.28,5.13,20.54,5.14,29.84.03Z"/>
        </g>
      </g>
      <text class="st0" transform="translate(217.29 787.88)"><tspan x="0" y="0">PAPIRO</tspan></text>
      <text class="st2" transform="translate(86.12 819.49)"><tspan x="0" y="0">PRODUZIONI VIDEO E RIPRESE AEREE</tspan></text>
    </g>
  </g>
</svg>